Wavefont-Thin.ufo
<glyph name="_6" format="2">
  <advance width="12.0"/>
  <unicode hex="0106"/>
  <unicode hex="0064"/>
  <outline>
    <contour>
      <point x="0.0" y="6.485714285714286" type="line"/>
      <point x="0.0" y="54.48571428571429" type="line"/>
      <point x="12.0" y="54.48571428571429" type="line"/>
      <point x="12.0" y="6.485714285714286" type="line"/>
    </contour>
    <component base="cap"/>
    <component base="cap" yOffset="48.0"/>
  </outline>
</glyph>
<glyph name="_7" format="2">
  <advance width="12.0"/>
  <unicode hex="0107"/>
  <outline>
    <contour>
      <point x="0.0" y="6.485714285714286" type="line"/>
      <point x="0.0" y="64.48571428571428" type="line"/>
      <point x="12.0" y="64.48571428571428" type="line"/>
      <point x="12.0" y="6.485714285714286" type="line"/>
    </contour>
    <component base="cap"/>
    <component base="cap" yOffset="58.0"/>
  </outline>
</glyph>
<glyph name="_8" format="2">
  <advance width="12.0"/>
  <unicode hex="0108"/>
  <unicode hex="0065"/>
  <outline>
    <contour>
      <point x="0.0" y="6.485714285714286" type="line"/>
      <point x="0.0" y="74.48571428571428" type="line"/>
      <point x="12.0" y="74.48571428571428" type="line"/>
      <point x="12.0" y="6.485714285714286" type="line"/>
    </contour>
    <component base="cap"/>
    <component base="cap" yOffset="68.0"/>
  </outline>
</glyph>
<glyph name="_10" format="2">
  <advance width="12.0"/>
  <unicode hex="010A"/>
  <unicode hex="0031"/>
  <unicode hex="0066"/>
  <outline>
    <contour>
      <point x="0.0" y="6.485714285714286" type="line"/>
      <point x="0.0" y="94.48571428571428" type="line"/>
      <point x="12.0" y="94.48571428571428" type="line"/>
      <point x="12.0" y="6.485714285714286" type="line"/>
    </contour>
    <component base="cap"/>
    <component base="cap" yOffset="88.0"/>
  </outline>
</glyph>
<glyph name="_11" format="2">
  <advance width="12.0"/>
  <unicode hex="010B"/>
  <outline>
    <contour>
      <point x="0.0" y="6.485714285714286" type="line"/>
      <point x="0.0" y="104.48571428571428" type="line"/>
      <point x="12.0" y="104.48571428571428" type="line"/>
      <point x="12.0" y="6.485714285714286" type="line"/>
    </contour>
    <component base="cap"/>
    <component base="cap" yOffset="98.0"/>
  </outline>
</glyph>
<glyph name="_12" format="2">
  <advance width="12.0"/>
  <unicode hex="010C"/>
  <unicode hex="0067"/>
  <outline>
    <contour>
      <point x="0.0" y="6.485714285714286" type="line"/>
      <point x="0.0" y="114.48571428571428" type="line"/>
      <point x="12.0" y="114.48571428571428" type="line"/>
      <point x="12.0" y="6.485714285714286" type="line"/>
    </contour>
    <component base="cap"/>
    <component base="cap" yOffset="108.0"/>
  </outline>
</glyph>
<glyph name="_13" format="2">
  <advance width="12.0"/>
  <unicode hex="010D"/>
  <outline>
    <contour>
      <point x="0.0" y="6.485714285714286" type="line"/>
      <point x="0.0" y="124.48571428571428" type="line"/>
      <point x="12.0" y="124.48571428571428" type="line"/>
      <point x="12.0" y="6.485714285714286" type="line"/>
    </contour>
    <component base="cap"/>
    <component base="cap" yOffset="118.0"/>
  </outline>
</glyph>
<glyph name="_14" format="2">
  <advance width="12.0"/>
  <unicode hex="010E"/>
  <unicode hex="2582"/>
  <unicode hex="0068"/>
  <outline>
    <contour>
      <point x="0.0" y="6.485714285714286" type="line"/>
      <point x="0.0" y="134.4857142857143" type="line"/>
      <point x="12.0" y="134.4857142857143" type="line"/>
      <point x="12.0" y="6.485714285714286" type="line"/>
    </contour>
    <component base="cap"/>
    <component base="cap" yOffset="128.0"/>
  </outline>
</glyph>
<glyph name="_16" format="2">
  <advance width="12.0"/>
  <unicode hex="0110"/>
  <unicode hex="0069"/>
  <outline>
    <contour>
      <point x="0.0" y="6.485714285714286" type="line"/>
      <point x="0.0" y="154.4857142857143" type="line"/>
      <point x="12.0" y="154.4857142857143" type="line"/>
      <point x="12.0" y="6.485714285714286" type="line"/>
    </contour>
    <component base="cap"/>
    <component base="cap" yOffset="148.0"/>
  </outline>
</glyph>
<glyph name="_18" format="2">
  <advance width="12.0"/>
  <unicode hex="0112"/>
  <unicode hex="006A"/>
  <outline>
    <contour>
      <point x="0.0" y="6.485714285714286" type="line"/>
      <point x="0.0" y="174.4857142857143" type="line"/>
      <point x="12.0" y="174.4857142857143" type="line"/>
      <point x="12.0" y="6.485714285714286" type="line"/>
    </contour>
    <component base="cap"/>
    <component base="cap" yOffset="168.0"/>
  </outline>
</glyph>
<glyph name="_20" format="2">
  <advance width="12.0"/>
  <unicode hex="0114"/>
  <unicode hex="0032"/>
  <unicode hex="006B"/>
  <outline>
    <contour>
      <point x="0.0" y="6.485714285714286" type="line"/>
      <point x="0.0" y="194.4857142857143" type="line"/>
      <point x="12.0" y="194.4857142857143" type="line"/>
      <point x="12.0" y="6.485714285714286" type="line"/>
    </contour>
    <component base="cap"/>
    <component base="cap" yOffset="188.0"/>
  </outline>
</glyph>
<glyph name="_21" format="2">
  <advance width="12.0"/>
  <unicode hex="0115"/>
  <outline>
    <contour>
      <point x="0.0" y="6.485714285714286" type="line"/>
      <point x="0.0" y="204.4857142857143" type="line"/>
      <point x="12.0" y="204.4857142857143" type="line"/>
      <point x="12.0" y="6.485714285714286" type="line"/>
    </contour>
    <component base="cap"/>
    <component base="cap" yOffset="198.0"/>
  </outline>
</glyph>
<glyph name="_22" format="2">
  <advance width="12.0"/>
  <unicode hex="0116"/>
  <unicode hex="006C"/>
  <outline>
    <contour>
      <point x="0.0" y="6.485714285714286" type="line"/>
      <point x="0.0" y="214.4857142857143" type="line"/>
      <point x="12.0" y="214.4857142857143" type="line"/>
      <point x="12.0" y="6.485714285714286" type="line"/>
    </contour>
    <component base="cap"/>
    <component base="cap" yOffset="208.0"/>
  </outline>
</glyph>
<glyph name="_26" format="2">
  <advance width="12.0"/>
  <unicode hex="011A"/>
  <unicode hex="006E"/>
  <outline>
    <contour>
      <point x="0.0" y="6.485714285714286" type="line"/>
      <point x="0.0" y="254.4857142857143" type="line"/>
      <point x="12.0" y="254.4857142857143" type="line"/>
      <point x="12.0" y="6.485714285714286" type="line"/>
    </contour>
    <component base="cap"/>
    <component base="cap" yOffset="248.0"/>
  </outline>
</glyph>
<glyph name="_28" format="2">
  <advance width="12.0"/>
  <unicode hex="011C"/>
  <unicode hex="2583"/>
  <unicode hex="006F"/>
  <outline>
    <contour>
      <point x="0.0" y="6.485714285714286" type="line"/>
      <point x="0.0" y="274.48571428571427" type="line"/>
      <point x="12.0" y="274.48571428571427" type="line"/>
      <point x="12.0" y="6.485714285714286" type="line"/>
    </contour>
    <component base="cap"/>
    <component base="cap" yOffset="268.0"/>
  </outline>
</glyph>
<glyph name="_29" format="2">
  <advance width="12.0"/>
  <unicode hex="011D"/>
  <outline>
    <contour>
      <point x="0.0" y="6.485714285714286" type="line"/>
      <point x="0.0" y="284.48571428571427" type="line"/>
      <point x="12.0" y="284.48571428571427" type="line"/>
      <point x="12.0" y="6.485714285714286" type="line"/>
    </contour>
    <component base="cap"/>
    <component base="cap" yOffset="278.0"/>
  </outline>
</glyph>
<glyph name="_30" format="2">
  <advance width="12.0"/>
  <unicode hex="011E"/>
  <unicode hex="0033"/>
  <unicode hex="0070"/>
  <outline>
    <contour>
      <point x="0.0" y="6.485714285714286" type="line"/>
      <point x="0.0" y="294.48571428571427" type="line"/>
      <point x="12.0" y="294.48571428571427" type="line"/>
      <point x="12.0" y="6.485714285714286" type="line"/>
    </contour>
    <component base="cap"/>
    <component base="cap" yOffset="288.0"/>
  </outline>
</glyph>
<glyph name="_32" format="2">
  <advance width="12.0"/>
  <unicode hex="0120"/>
  <unicode hex="0071"/>
  <outline>
    <contour>
      <point x="0.0" y="6.485714285714286" type="line"/>
      <point x="0.0" y="314.48571428571427" type="line"/>
      <point x="12.0" y="314.48571428571427" type="line"/>
      <point x="12.0" y="6.485714285714286" type="line"/>
    </contour>
    <component base="cap"/>
    <component base="cap" yOffset="308.0"/>
  </outline>
</glyph>
<glyph name="_36" format="2">
  <advance width="12.0"/>
  <unicode hex="0124"/>
  <unicode hex="0073"/>
  <outline>
    <contour>
      <point x="0.0" y="6.485714285714286" type="line"/>
      <point x="0.0" y="354.48571428571427" type="line"/>
      <point x="12.0" y="354.48571428571427" type="line"/>
      <point x="12.0" y="6.485714285714286" type="line"/>
    </contour>
    <component base="cap"/>
    <component base="cap" yOffset="348.0"/>
  </outline>
</glyph>
<glyph name="_38" format="2">
  <advance width="12.0"/>
  <unicode hex="0126"/>
  <unicode hex="0074"/>
  <outline>
    <contour>
      <point x="0.0" y="6.485714285714286" type="line"/>
      <point x="0.0" y="374.48571428571427" type="line"/>
      <point x="12.0" y="374.48571428571427" type="line"/>
      <point x="12.0" y="6.485714285714286" type="line"/>
    </contour>
    <component base="cap"/>
    <component base="cap" yOffset="368.0"/>
  </outline>
</glyph>
<glyph name="_40" format="2">
  <advance width="12.0"/>
  <unicode hex="0128"/>
  <unicode hex="0034"/>
  <unicode hex="0075"/>
  <outline>
    <contour>
      <point x="0.0" y="6.485714285714286" type="line"/>
      <point x="0.0" y="394.48571428571427" type="line"/>
      <point x="12.0" y="394.48571428571427" type="line"/>
      <point x="12.0" y="6.485714285714286" type="line"/>
    </contour>
    <component base="cap"/>
    <component base="cap" yOffset="388.0"/>
  </outline>
</glyph>
<glyph name="_42" format="2">
  <advance width="12.0"/>
  <unicode hex="012A"/>
  <unicode hex="2584"/>
  <unicode hex="0076"/>
  <outline>
    <contour>
      <point x="0.0" y="6.485714285714286" type="line"/>
      <point x="0.0" y="414.48571428571427" type="line"/>
      <point x="12.0" y="414.48571428571427" type="line"/>
      <point x="12.0" y="6.485714285714286" type="line"/>
    </contour>
    <component base="cap"/>
    <component base="cap" yOffset="408.0"/>
  </outline>
</glyph>
<glyph name="_43" format="2">
  <advance width="12.0"/>
  <unicode hex="012B"/>
  <outline>
    <contour>
      <point x="0.0" y="6.485714285714286" type="line"/>
      <point x="0.0" y="424.48571428571427" type="line"/>
      <point x="12.0" y="424.48571428571427" type="line"/>
      <point x="12.0" y="6.485714285714286" type="line"/>
    </contour>
    <component base="cap"/>
    <component base="cap" yOffset="418.0"/>
  </outline>
</glyph>
<glyph name="_44" format="2">
  <advance width="12.0"/>
  <unicode hex="012C"/>
  <unicode hex="0077"/>
  <outline>
    <contour>
      <point x="0.0" y="6.485714285714286" type="line"/>
      <point x="0.0" y="434.48571428571427" type="line"/>
      <point x="12.0" y="434.48571428571427" type="line"/>
      <point x="12.0" y="6.485714285714286" type="line"/>
    </contour>
    <component base="cap"/>
    <component base="cap" yOffset="428.0"/>
  </outline>
</glyph>
<glyph name="_45" format="2">
  <advance width="12.0"/>
  <unicode hex="012D"/>
  <outline>
    <contour>
      <point x="0.0" y="6.485714285714286" type="line"/>
      <point x="0.0" y="444.48571428571427" type="line"/>
      <point x="12.0" y="444.48571428571427" type="line"/>
      <point x="12.0" y="6.485714285714286" type="line"/>
    </contour>
    <component base="cap"/>
    <component base="cap" yOffset="438.0"/>
  </outline>
</glyph>
<glyph name="_46" format="2">
  <advance width="12.0"/>
  <unicode hex="012E"/>
  <unicode hex="0078"/>
  <outline>
    <contour>
      <point x="0.0" y="6.485714285714286" type="line"/>
      <point x="0.0" y="454.48571428571427" type="line"/>
      <point x="12.0" y="454.48571428571427" type="line"/>
      <point x="12.0" y="6.485714285714286" type="line"/>
    </contour>
    <component base="cap"/>
    <component base="cap" yOffset="448.0"/>
  </outline>
</glyph>
<glyph name="_48" format="2">
  <advance width="12.0"/>
  <unicode hex="0130"/>
  <unicode hex="0079"/>
  <outline>
    <contour>
      <point x="0.0" y="6.485714285714286" type="line"/>
      <point x="0.0" y="474.48571428571427" type="line"/>
      <point x="12.0" y="474.48571428571427" type="line"/>
      <point x="12.0" y="6.485714285714286" type="line"/>
    </contour>
    <component base="cap"/>
    <component base="cap" yOffset="468.0"/>
  </outline>
</glyph>
<glyph name="_50" format="2">
  <advance width="12.0"/>
  <unicode hex="0132"/>
  <unicode hex="0035"/>
  <unicode hex="007A"/>
  <outline>
    <contour>
      <point x="0.0" y="6.485714285714286" type="line"/>
      <point x="0.0" y="494.48571428571427" type="line"/>
      <point x="12.0" y="494.48571428571427" type="line"/>
      <point x="12.0" y="6.485714285714286" type="line"/>
    </contour>
    <component base="cap"/>
    <component base="cap" yOffset="488.0"/>
  </outline>
</glyph>
<glyph name="_54" format="2">
  <advance width="12.0"/>
  <unicode hex="0136"/>
  <unicode hex="0042"/>
  <outline>
    <contour>
      <point x="0.0" y="6.485714285714286" type="line"/>
      <point x="0.0" y="534.4857142857143" type="line"/>
      <point x="12.0" y="534.4857142857143" type="line"/>
      <point x="12.0" y="6.485714285714286" type="line"/>
    </contour>
    <component base="cap"/>
    <component base="cap" yOffset="528.0"/>
  </outline>
</glyph>
<glyph name="_56" format="2">
  <advance width="12.0"/>
  <unicode hex="0138"/>
  <unicode hex="2585"/>
  <unicode hex="0043"/>
  <outline>
    <contour>
      <point x="0.0" y="6.485714285714286" type="line"/>
      <point x="0.0" y="554.4857142857143" type="line"/>
      <point x="12.0" y="554.4857142857143" type="line"/>
      <point x="12.0" y="6.485714285714286" type="line"/>
    </contour>
    <component base="cap"/>
    <component base="cap" yOffset="548.0"/>
  </outline>
</glyph>
<glyph name="_59" format="2">
  <advance width="12.0"/>
  <unicode hex="013B"/>
  <outline>
    <contour>
      <point x="0.0" y="6.485714285714286" type="line"/>
      <point x="0.0" y="584.4857142857143" type="line"/>
      <point x="12.0" y="584.4857142857143" type="line"/>
      <point x="12.0" y="6.485714285714286" type="line"/>
    </contour>
    <component base="cap"/>
    <component base="cap" yOffset="578.0"/>
  </outline>
</glyph>
<glyph name="_60" format="2">
  <advance width="12.0"/>
  <unicode hex="013C"/>
  <unicode hex="0036"/>
  <unicode hex="0045"/>
  <outline>
    <contour>
      <point x="0.0" y="6.485714285714286" type="line"/>
      <point x="0.0" y="594.4857142857143" type="line"/>
      <point x="12.0" y="594.4857142857143" type="line"/>
      <point x="12.0" y="6.485714285714286" type="line"/>
    </contour>
    <component base="cap"/>
    <component base="cap" yOffset="588.0"/>
  </outline>
</glyph>
<glyph name="_62" format="2">
  <advance width="12.0"/>
  <unicode hex="013E"/>
  <unicode hex="0046"/>
  <outline>
    <contour>
      <point x="0.0" y="6.485714285714286" type="line"/>
      <point x="0.0" y="614.4857142857143" type="line"/>
      <point x="12.0" y="614.4857142857143" type="line"/>
      <point x="12.0" y="6.485714285714286" type="line"/>
    </contour>
    <component base="cap"/>
    <component base="cap" yOffset="608.0"/>
  </outline>
</glyph>
<glyph name="_68" format="2">
  <advance width="12.0"/>
  <unicode hex="0144"/>
  <unicode hex="0049"/>
  <outline>
    <contour>
      <point x="0.0" y="6.485714285714286" type="line"/>
      <point x="0.0" y="674.4857142857143" type="line"/>
      <point x="12.0" y="674.4857142857143" type="line"/>
      <point x="12.0" y="6.485714285714286" type="line"/>
    </contour>
    <component base="cap"/>
    <component base="cap" yOffset="668.0"/>
  </outline>
</glyph>
<glyph name="_70" format="2">
  <advance width="12.0"/>
  <unicode hex="0146"/>
  <unicode hex="0037"/>
  <unicode hex="004A"/>
  <outline>
    <contour>
      <point x="0.0" y="6.485714285714286" type="line"/>
      <point x="0.0" y="694.4857142857143" type="line"/>
      <point x="12.0" y="694.4857142857143" type="line"/>
      <point x="12.0" y="6.485714285714286" type="line"/>
    </contour>
    <component base="cap"/>
    <component base="cap" yOffset="688.0"/>
  </outline>
</glyph>
<glyph name="_72" format="2">
  <advance width="12.0"/>
  <unicode hex="0148"/>
  <unicode hex="2586"/>
  <unicode hex="004B"/>
  <outline>
    <contour>
      <point x="0.0" y="6.485714285714286" type="line"/>
      <point x="0.0" y="714.4857142857143" type="line"/>
      <point x="12.0" y="714.4857142857143" type="line"/>
      <point x="12.0" y="6.485714285714286" type="line"/>
    </contour>
    <component base="cap"/>
    <component base="cap" yOffset="708.0"/>
  </outline>
</glyph>
<glyph name="_73" format="2">
  <advance width="12.0"/>
  <unicode hex="0149"/>
  <outline>
    <contour>
      <point x="0.0" y="6.485714285714286" type="line"/>
      <point x="0.0" y="724.4857142857143" type="line"/>
      <point x="12.0" y="724.4857142857143" type="line"/>
      <point x="12.0" y="6.485714285714286" type="line"/>
    </contour>
    <component base="cap"/>
    <component base="cap" yOffset="718.0"/>
  </outline>
</glyph>
<glyph name="_74" format="2">
  <advance width="12.0"/>
  <unicode hex="014A"/>
  <unicode hex="004C"/>
  <outline>
    <contour>
      <point x="0.0" y="6.485714285714286" type="line"/>
      <point x="0.0" y="734.4857142857143" type="line"/>
      <point x="12.0" y="734.4857142857143" type="line"/>
      <point x="12.0" y="6.485714285714286" type="line"/>
    </contour>
    <component base="cap"/>
    <component base="cap" yOffset="728.0"/>
  </outline>
</glyph>
<glyph name="_75" format="2">
  <advance width="12.0"/>
  <unicode hex="014B"/>
  <outline>
    <contour>
      <point x="0.0" y="6.485714285714286" type="line"/>
      <point x="0.0" y="744.4857142857143" type="line"/>
      <point x="12.0" y="744.4857142857143" type="line"/>
      <point x="12.0" y="6.485714285714286" type="line"/>
    </contour>
    <component base="cap"/>
    <component base="cap" yOffset="738.0"/>
  </outline>
</glyph>
<glyph name="_80" format="2">
  <advance width="12.0"/>
  <unicode hex="0150"/>
  <unicode hex="0038"/>
  <unicode hex="004F"/>
  <outline>
    <contour>
      <point x="0.0" y="6.485714285714286" type="line"/>
      <point x="0.0" y="794.4857142857143" type="line"/>
      <point x="12.0" y="794.4857142857143" type="line"/>
      <point x="12.0" y="6.485714285714286" type="line"/>
    </contour>
    <component base="cap"/>
    <component base="cap" yOffset="788.0"/>
  </outline>
</glyph>
<glyph name="_82" format="2">
  <advance width="12.0"/>
  <unicode hex="0152"/>
  <unicode hex="0050"/>
  <outline>
    <contour>
      <point x="0.0" y="6.485714285714286" type="line"/>
      <point x="0.0" y="814.4857142857143" type="line"/>
      <point x="12.0" y="814.4857142857143" type="line"/>
      <point x="12.0" y="6.485714285714286" type="line"/>
    </contour>
    <component base="cap"/>
    <component base="cap" yOffset="808.0"/>
  </outline>
</glyph>
<glyph name="_84" format="2">
  <advance width="12.0"/>
  <unicode hex="0154"/>
  <unicode hex="0051"/>
  <outline>
    <contour>
      <point x="0.0" y="6.485714285714286" type="line"/>
      <point x="0.0" y="834.4857142857143" type="line"/>
      <point x="12.0" y="834.4857142857143" type="line"/>
      <point x="12.0" y="6.485714285714286" type="line"/>
    </contour>
    <component base="cap"/>
    <component base="cap" yOffset="828.0"/>
  </outline>
</glyph>
<glyph name="_86" format="2">
  <advance width="12.0"/>
  <unicode hex="0156"/>
  <unicode hex="2587"/>
  <unicode hex="0052"/>
  <outline>
    <contour>
      <point x="0.0" y="6.485714285714286" type="line"/>
      <point x="0.0" y="854.4857142857143" type="line"/>
      <point x="12.0" y="854.4857142857143" type="line"/>
      <point x="12.0" y="6.485714285714286" type="line"/>
    </contour>
    <component base="cap"/>
    <component base="cap" yOffset="848.0"/>
  </outline>
</glyph>
<glyph name="_90" format="2">
  <advance width="12.0"/>
  <unicode hex="015A"/>
  <unicode hex="0039"/>
  <unicode hex="0054"/>
  <outline>
    <contour>
      <point x="0.0" y="6.485714285714286" type="line"/>
      <point x="0.0" y="894.4857142857143" type="line"/>
      <point x="12.0" y="894.4857142857143" type="line"/>
      <point x="12.0" y="6.485714285714286" type="line"/>
    </contour>
    <component base="cap"/>
    <component base="cap" yOffset="888.0"/>
  </outline>
</glyph>
<glyph name="_92" format="2">
  <advance width="12.0"/>
  <unicode hex="015C"/>
  <unicode hex="0055"/>
  <outline>
    <contour>
      <point x="0.0" y="6.485714285714286" type="line"/>
      <point x="0.0" y="914.4857142857143" type="line"/>
      <point x="12.0" y="914.4857142857143" type="line"/>
      <point x="12.0" y="6.485714285714286" type="line"/>
    </contour>
    <component base="cap"/>
    <component base="cap" yOffset="908.0"/>
  </outline>
</glyph>
<glyph name="_93" format="2">
  <advance width="12.0"/>
  <unicode hex="015D"/>
  <outline>
    <contour>
      <point x="0.0" y="6.485714285714286" type="line"/>
      <point x="0.0" y="924.4857142857143" type="line"/>
      <point x="12.0" y="924.4857142857143" type="line"/>
      <point x="12.0" y="6.485714285714286" type="line"/>
    </contour>
    <component base="cap"/>
    <component base="cap" yOffset="918.0"/>
  </outline>
</glyph>
<glyph name="_94" format="2">
  <advance width="12.0"/>
  <unicode hex="015E"/>
  <unicode hex="0056"/>
  <outline>
    <contour>
      <point x="0.0" y="6.485714285714286" type="line"/>
      <point x="0.0" y="934.4857142857143" type="line"/>
      <point x="12.0" y="934.4857142857143" type="line"/>
      <point x="12.0" y="6.485714285714286" type="line"/>
    </contour>
    <component base="cap"/>
    <component base="cap" yOffset="928.0"/>
  </outline>
</glyph>
<glyph name="_95" format="2">
  <advance width="12.0"/>
  <unicode hex="015F"/>
  <outline>
    <contour>
      <point x="0.0" y="6.485714285714286" type="line"/>
      <point x="0.0" y="944.4857142857143" type="line"/>
      <point x="12.0" y="944.4857142857143" type="line"/>
      <point x="12.0" y="6.485714285714286" type="line"/>
    </contour>
    <component base="cap"/>
    <component base="cap" yOffset="938.0"/>
  </outline>
</glyph>
<glyph name="_97" format="2">
  <advance width="12.0"/>
  <unicode hex="0161"/>
  <outline>
    <contour>
      <point x="0.0" y="6.485714285714286" type="line"/>
      <point x="0.0" y="964.4857142857143" type="line"/>
      <point x="12.0" y="964.4857142857143" type="line"/>
      <point x="12.0" y="6.485714285714286" type="line"/>
    </contour>
    <component base="cap"/>
    <component base="cap" yOffset="958.0"/>
  </outline>
</glyph>
<glyph name="_99" format="2">
  <advance width="12.0"/>
  <unicode hex="0163"/>
  <unicode hex="0059"/>
  <outline>
    <contour>
      <point x="0.0" y="6.485714285714286" type="line"/>
      <point x="0.0" y="984.4857142857143" type="line"/>
      <point x="12.0" y="984.4857142857143" type="line"/>
      <point x="12.0" y="6.485714285714286" type="line"/>
    </contour>
    <component base="cap"/>
    <component base="cap" yOffset="978.0"/>
  </outline>
</glyph>
<glyph name="_100" format="2">
  <advance width="12.0"/>
  <unicode hex="0164"/>
  <unicode hex="007C"/>
  <unicode hex="2588"/>
  <unicode hex="005A"/>
  <outline>
    <contour>
      <point x="0.0" y="6.485714285714286" type="line"/>
      <point x="0.0" y="994.4857142857143" type="line"/>
      <point x="12.0" y="994.4857142857143" type="line"/>
      <point x="12.0" y="6.485714285714286" type="line"/>
    </contour>
    <component base="cap"/>
    <component base="cap" yOffset="988.0"/>
  </outline>
</glyph>
<glyph name="_102" format="2">
  <advance width="12.0"/>
  <unicode hex="0166"/>
  <outline>
    <contour>
      <point x="0.0" y="6.485714285714286" type="line"/>
      <point x="0.0" y="1014.4857142857143" type="line"/>
      <point x="12.0" y="1014.4857142857143" type="line"/>
      <point x="12.0" y="6.485714285714286" type="line"/>
    </contour>
    <component base="cap"/>
    <component base="cap" yOffset="1008.0"/>
  </outline>
</glyph>
<glyph name="_103" format="2">
  <advance width="12.0"/>
  <unicode hex="0167"/>
  <outline>
    <contour>
      <point x="0.0" y="6.485714285714286" type="line"/>
      <point x="0.0" y="1024.4857142857143" type="line"/>
      <point x="12.0" y="1024.4857142857143" type="line"/>
      <point x="12.0" y="6.485714285714286" type="line"/>
    </contour>
    <component base="cap"/>
    <component base="cap" yOffset="1018.0"/>
  </outline>
</glyph>
<glyph name="_106" format="2">
  <advance width="12.0"/>
  <unicode hex="016A"/>
  <outline>
    <contour>
      <point x="0.0" y="6.485714285714286" type="line"/>
      <point x="0.0" y="1054.4857142857143" type="line"/>
      <point x="12.0" y="1054.4857142857143" type="line"/>
      <point x="12.0" y="6.485714285714286" type="line"/>
    </contour>
    <component base="cap"/>
    <component base="cap" yOffset="1048.0"/>
  </outline>
</glyph>
<glyph name="_119" format="2">
  <advance width="12.0"/>
  <unicode hex="0177"/>
  <outline>
    <contour>
      <point x="0.0" y="6.485714285714286" type="line"/>
      <point x="0.0" y="1184.4857142857143" type="line"/>
      <point x="12.0" y="1184.4857142857143" type="line"/>
      <point x="12.0" y="6.485714285714286" type="line"/>
    </contour>
    <component base="cap"/>
    <component base="cap" yOffset="1178.0"/>
  </outline>
</glyph>
<glyph name="_120" format="2">
  <advance width="12.0"/>
  <unicode hex="0178"/>
  <outline>
    <contour>
      <point x="0.0" y="6.485714285714286" type="line"/>
      <point x="0.0" y="1194.4857142857143" type="line"/>
      <point x="12.0" y="1194.4857142857143" type="line"/>
      <point x="12.0" y="6.485714285714286" type="line"/>
    </contour>
    <component base="cap"/>
    <component base="cap" yOffset="1188.0"/>
  </outline>
</glyph>
<glyph name="_125" format="2">
  <advance width="12.0"/>
  <unicode hex="017D"/>
  <outline>
    <contour>
      <point x="0.0" y="6.485714285714286" type="line"/>
      <point x="0.0" y="1244.4857142857143" type="line"/>
      <point x="12.0" y="1244.4857142857143" type="line"/>
      <point x="12.0" y="6.485714285714286" type="line"/>
    </contour>
    <component base="cap"/>
    <component base="cap" yOffset="1238.0"/>
  </outline>
</glyph>
<glyph name="_10.clip" format="2">
  <advance width="12.0"/>
  <outline>
    <contour>
      <point x="50.0" y="100.0" type="curve" smooth="yes"/>
      <point x="-38.0" y="100.0" type="line"/>
      <point x="-10.5" y="100.0"/>
      <point x="12.0" y="77.5"/>
      <point x="12.0" y="50.0" type="curve" smooth="yes"/>
      <point x="12.0" y="50.0" type="line"/>
      <point x="12.0" y="22.5"/>
      <point x="-10.5" y="0.0"/>
      <point x="-38.0" y="0.0" type="curve" smooth="yes"/>
      <point x="50.0" y="0.0" type="line"/>
      <point x="22.5" y="0.0"/>
      <point x="0.0" y="22.5"/>
      <point x="0.0" y="50.0" type="curve" smooth="yes"/>
      <point x="0.0" y="50.0" type="line"/>
      <point x="0.0" y="77.5"/>
      <point x="22.5" y="100.0"/>
    </contour>
  </outline>
</glyph>
<glyph name="_12.clip" format="2">
  <advance width="12.0"/>
  <outline>
    <contour>
      <point x="60.0" y="120.0" type="curve" smooth="yes"/>
      <point x="-48.0" y="120.0" type="line"/>
      <point x="-14.028571428571428" y="120.0"/>
      <point x="12.0" y="93.0"/>
      <point x="12.0" y="60.0" type="curve" smooth="yes"/>
      <point x="12.0" y="60.0" type="line"/>
      <point x="12.0" y="26.0"/>
      <point x="-14.028571428571428" y="0.0"/>
      <point x="-48.0" y="0.0" type="curve" smooth="yes"/>
      <point x="60.0" y="0.0" type="line"/>
      <point x="26.0" y="0.0"/>
      <point x="0.0" y="26.0"/>
      <point x="0.0" y="60.0" type="curve" smooth="yes"/>
      <point x="0.0" y="60.0" type="line"/>
      <point x="0.0" y="93.0"/>
      <point x="26.0" y="120.0"/>
    </contour>
  </outline>
</glyph>
<glyph name="_16.clip" format="2">
  <advance width="12.0"/>
  <outline>
    <contour>
      <point x="80.0" y="160.0" type="curve" smooth="yes"/>
      <point x="-68.0" y="160.0" type="line"/>
      <point x="-24.0" y="160.0"/>
      <point x="12.0" y="124.0"/>
      <point x="12.0" y="80.0" type="curve" smooth="yes"/>
      <point x="12.0" y="80.0" type="line"/>
      <point x="12.0" y="36.0"/>
      <point x="-24.0" y="0.0"/>
      <point x="-68.0" y="0.0" type="curve" smooth="yes"/>
      <point x="80.0" y="0.0" type="line"/>
      <point x="36.0" y="0.0"/>
      <point x="0.0" y="36.0"/>
      <point x="0.0" y="80.0" type="curve" smooth="yes"/>
      <point x="0.0" y="80.0" type="line"/>
      <point x="0.0" y="124.0"/>
      <point x="36.0" y="160.0"/>
    </contour>
  </outline>
</glyph>
<glyph name="_17.clip" format="2">
  <advance width="12.0"/>
  <outline>
    <contour>
      <point x="85.0" y="170.0" type="curve" smooth="yes"/>
      <point x="-73.0" y="170.0" type="line"/>
      <point x="-26.25" y="170.0"/>
      <point x="12.0" y="131.75"/>
      <point x="12.0" y="85.0" type="curve" smooth="yes"/>
      <point x="12.0" y="85.0" type="line"/>
      <point x="12.0" y="38.25"/>
      <point x="-26.25" y="0.0"/>
      <point x="-73.0" y="0.0" type="curve" smooth="yes"/>
      <point x="85.0" y="0.0" type="line"/>
      <point x="38.25" y="0.0"/>
      <point x="0.0" y="38.25"/>
      <point x="0.0" y="85.0" type="curve" smooth="yes"/>
      <point x="0.0" y="85.0" type="line"/>
      <point x="0.0" y="131.75"/>
      <point x="38.25" y="170.0"/>
    </contour>
  </outline>
</glyph>
<glyph name="_18.clip" format="2">
  <advance width="12.0"/>
  <outline>
    <contour>
      <point x="90.0" y="180.0" type="curve" smooth="yes"/>
      <point x="-78.0" y="180.0" type="line"/>
      <point x="-28.5" y="180.0"/>
      <point x="12.0" y="139.5"/>
      <point x="12.0" y="90.0" type="curve" smooth="yes"/>
      <point x="12.0" y="90.0" type="line"/>
      <point x="12.0" y="40.5"/>
      <point x="-28.5" y="0.0"/>
      <point x="-78.0" y="0.0" type="curve" smooth="yes"/>
      <point x="90.0" y="0.0" type="line"/>
      <point x="40.5" y="0.0"/>
      <point x="0.0" y="40.5"/>
      <point x="0.0" y="90.0" type="curve" smooth="yes"/>
      <point x="0.0" y="90.0" type="line"/>
      <point x="0.0" y="139.5"/>
      <point x="40.5" y="180.0"/>
    </contour>
  </outline>
</glyph>
<glyph name="_2.clip" format="2">
  <advance width="12.0"/>
  <outline>
    <contour>
      <point x="10.0" y="20.0" type="curve" smooth="yes"/>
      <point x="2.0" y="20.0" type="line"/>
      <point x="7.5" y="20.0"/>
      <point x="12.0" y="15.5"/>
      <point x="12.0" y="10.0" type="curve" smooth="yes"/>
      <point x="12.0" y="10.0" type="line"/>
      <point x="12.0" y="4.5"/>
      <point x="7.5" y="0.0"/>
      <point x="2.0" y="0.0" type="curve" smooth="yes"/>
      <point x="10.0" y="0.0" type="line"/>
      <point x="4.5" y="0.0"/>
      <point x="0.0" y="4.5"/>
      <point x="0.0" y="10.0" type="curve" smooth="yes"/>
      <point x="0.0" y="10.0" type="line"/>
      <point x="0.0" y="15.5"/>
      <point x="4.5" y="20.0"/>
    </contour>
  </outline>
</glyph>
<glyph name="_20.clip" format="2">
  <advance width="12.0"/>
  <outline>
    <contour>
      <point x="100.0" y="200.0" type="curve" smooth="yes"/>
      <point x="-88.0" y="200.0" type="line"/>
      <point x="-32.028571428571425" y="200.0"/>
      <point x="12.0" y="155.0"/>
      <point x="12.0" y="100.0" type="curve" smooth="yes"/>
      <point x="12.0" y="100.0" type="line"/>
      <point x="12.0" y="44.0"/>
      <point x="-32.028571428571425" y="0.0"/>
      <point x="-88.0" y="0.0" type="curve" smooth="yes"/>
      <point x="100.0" y="0.0" type="line"/>
      <point x="44.0" y="0.0"/>
      <point x="0.0" y="44.0"/>
      <point x="0.0" y="100.0" type="curve" smooth="yes"/>
      <point x="0.0" y="100.0" type="line"/>
      <point x="0.0" y="155.0"/>
      <point x="44.0" y="200.0"/>
    </contour>
  </outline>
</glyph>
<glyph name="_23.clip" format="2">
  <advance width="12.0"/>
  <outline>
    <contour>
      <point x="115.0" y="230.0" type="curve" smooth="yes"/>
      <point x="-103.0" y="230.0" type="line"/>
      <point x="-39.75" y="230.0"/>
      <point x="12.0" y="178.25"/>
      <point x="12.0" y="115.0" type="curve" smooth="yes"/>
      <point x="12.0" y="115.0" type="line"/>
      <point x="12.0" y="51.75"/>
      <point x="-39.75" y="0.0"/>
      <point x="-103.0" y="0.0" type="curve" smooth="yes"/>
      <point x="115.0" y="0.0" type="line"/>
      <point x="51.75" y="0.0"/>
      <point x="0.0" y="51.75"/>
      <point x="0.0" y="115.0" type="curve" smooth="yes"/>
      <point x="0.0" y="115.0" type="line"/>
      <point x="0.0" y="178.25"/>
      <point x="51.75" y="230.0"/>
    </contour>
  </outline>
</glyph>
<glyph name="_3.clip" format="2">
  <advance width="12.0"/>
  <outline>
    <contour>
      <point x="15.0" y="30.0" type="curve" smooth="yes"/>
      <point x="-3.0" y="30.0" type="line"/>
      <point x="5.25" y="30.0"/>
      <point x="12.0" y="23.25"/>
      <point x="12.0" y="15.0" type="curve" smooth="yes"/>
      <point x="12.0" y="15.0" type="line"/>
      <point x="12.0" y="6.75"/>
      <point x="5.25" y="0.0"/>
      <point x="-3.0" y="0.0" type="curve" smooth="yes"/>
      <point x="15.0" y="0.0" type="line"/>
      <point x="6.75" y="0.0"/>
      <point x="0.0" y="6.75"/>
      <point x="0.0" y="15.0" type="curve" smooth="yes"/>
      <point x="0.0" y="15.0" type="line"/>
      <point x="0.0" y="23.25"/>
      <point x="6.75" y="30.0"/>
    </contour>
  </outline>
</glyph>
<glyph name="_4.clip" format="2">
  <advance width="12.0"/>
  <outline>
    <contour>
      <point x="20.0" y="40.0" type="curve" smooth="yes"/>
      <point x="-8.0" y="40.0" type="line"/>
      <point x="3.0" y="40.0"/>
      <point x="12.0" y="31.0"/>
      <point x="12.0" y="20.0" type="curve" smooth="yes"/>
      <point x="12.0" y="20.0" type="line"/>
      <point x="12.0" y="9.0"/>
      <point x="3.0" y="0.0"/>
      <point x="-8.0" y="0.0" type="curve" smooth="yes"/>
      <point x="20.0" y="0.0" type="line"/>
      <point x="9.0" y="0.0"/>
      <point x="0.0" y="9.0"/>
      <point x="0.0" y="20.0" type="curve" smooth="yes"/>
      <point x="0.0" y="20.0" type="line"/>
      <point x="0.0" y="31.0"/>
      <point x="9.0" y="40.0"/>
    </contour>
  </outline>
</glyph>
<glyph name="_8.clip" format="2">
  <advance width="12.0"/>
  <outline>
    <contour>
      <point x="40.0" y="80.0" type="curve" smooth="yes"/>
      <point x="-28.0" y="80.0" type="line"/>
      <point x="-6.0" y="80.0"/>
      <point x="12.0" y="62.0"/>
      <point x="12.0" y="40.0" type="curve" smooth="yes"/>
      <point x="12.0" y="40.0" type="line"/>
      <point x="12.0" y="18.0"/>
      <point x="-6.0" y="0.0"/>
      <point x="-28.0" y="0.0" type="curve" smooth="yes"/>
      <point x="40.0" y="0.0" type="line"/>
      <point x="18.0" y="0.0"/>
      <point x="0.0" y="18.0"/>
      <point x="0.0" y="40.0" type="curve" smooth="yes"/>
      <point x="0.0" y="40.0" type="line"/>
      <point x="0.0" y="62.0"/>
      <point x="18.0" y="80.0"/>
    </contour>
  </outline>
</glyph>
<glyph name="_9.clip" format="2">
  <advance width="12.0"/>
  <outline>
    <contour>
      <point x="45.0" y="90.0" type="curve" smooth="yes"/>
      <point x="-33.0" y="90.0" type="line"/>
      <point x="-8.25" y="90.0"/>
      <point x="12.0" y="69.75"/>
      <point x="12.0" y="45.0" type="curve" smooth="yes"/>
      <point x="12.0" y="45.0" type="line"/>
      <point x="12.0" y="20.25"/>
      <point x="-8.25" y="0.0"/>
      <point x="-33.0" y="0.0" type="curve" smooth="yes"/>
      <point x="45.0" y="0.0" type="line"/>
      <point x="20.25" y="0.0"/>
      <point x="0.0" y="20.25"/>
      <point x="0.0" y="45.0" type="curve" smooth="yes"/>
      <point x="0.0" y="45.0" type="line"/>
      <point x="0.0" y="69.75"/>
      <point x="20.25" y="90.0"/>
    </contour>
  </outline>
</glyph>
<glyph name="cap" format="2">
  <outline>
    <contour>
      <point x="6.0" y="12.0" type="curve" smooth="yes"/>
      <point x="6.0" y="12.0" type="line"/>
      <point x="9.3" y="12.0"/>
      <point x="12.0" y="9.3"/>
      <point x="12.0" y="6.0" type="curve" smooth="yes"/>
      <point x="12.0" y="6.0" type="line"/>
      <point x="12.0" y="2.7"/>
      <point x="9.3" y="0.0"/>
      <point x="6.0" y="0.0" type="curve" smooth="yes"/>
      <point x="6.0" y="0.0" type="line"/>
      <point x="2.7" y="0.0"/>
      <point x="0.0" y="2.7"/>
      <point x="0.0" y="6.0" type="curve" smooth="yes"/>
      <point x="0.0" y="6.0" type="line"/>
      <point x="0.0" y="9.3"/>
      <point x="2.7" y="12.0"/>
    </contour>
  </outline>
</glyph>
